<svg id="svg2" height="100" width="100" xmlns="http://www.w3.org/2000/svg" xmlns:cc="http://creativecommons.org/ns#" xmlns:dc="http://purl.org/dc/elements/1.1/" xmlns:inkscape="http://www.inkscape.org/namespaces/inkscape" xmlns:rdf="http://www.w3.org/1999/02/22-rdf-syntax-ns#" xmlns:sodipodi="http://sodipodi.sourceforge.net/DTD/sodipodi-0.dtd" xmlns:svg="http://www.w3.org/2000/svg"><clipPath id="clipPath3789"><path id="path3791" d="m674.28571 549.50507a261.42856 262.85715 0 1 1 -522.85712 0 261.42856 262.85715 0 1 1 522.85712 0z" transform="matrix(.184 0 0 .183 190.372 664.377)"/></clipPath><g id="layer1" transform="translate(0 -952.362)"><g id="g3288" transform="translate(147.143 13.214)"><path id="path2985-5" d="m-97.142857 941.14788c-26.509673 0-48.000003 21.49033-48.000003 48.00002 0 26.5096 21.49033 48 48.000003 48 26.509668 0 48-21.4904 48-48z" fill="#e74c3c"/><g fill="#f8f6de"><path id="rect3038" d="m-97.142857 941.14788v48.00002h48z" opacity=".4"/><path id="text3812" d="m47.375 55.5625c-1.866672.000018-3.32292.443767-4.40625 1.34375-1.083335.883349-1.625001 2.089598-1.625 3.65625-.000001.750012.124999 1.404178.375 1.9375.266665.533344.583331.991676 1 1.375.43333.383342.949997.702092 1.5.96875.566662.250008 1.149995.502091 1.75.71875.599994.200008 1.127076.408341 1.59375.625.466659.200007.839575.406257 1.15625.65625.333325.23334.583324.512506.75.8125.183324.300005.28124.645838.28125 1.0625-.00001.700004-.264593 1.24167-.78125 1.625-.516675.383336-1.335424.593752-2.46875.59375-1.083339.000002-2.014588-.124998-2.78125-.375-.766669-.249997-1.362502-.499997-1.8125-.75l-.9375 2.5625c.199999.116667.479165.256251.8125.40625.333331.133334.737498.272917 1.1875.40625.466663.133333.979163.229167 1.5625.3125.599995.1 1.252078.15625 1.96875.15625 2.133325 0 3.74374-.43125 4.84375-1.28125 1.116654-.866665 1.687487-2.08958 1.6875-3.65625-.000013-.816661-.110429-1.495827-.34375-2.0625-.233346-.583326-.581262-1.083326-1.03125-1.5-.433344-.433325-.97501-.793741-1.625-1.09375-.633343-.316657-1.370842-.63749-2.1875-.9375-.466674-.166656-.881257-.347906-1.28125-.53125-.383339-.183322-.731256-.377072-1.03125-.59375-.283338-.216655-.520838-.452072-.6875-.71875-.150004-.283321-.218754-.616654-.21875-1-.000004-.63332.252079-1.118736.71875-1.46875.483328-.349985 1.149994-.531235 2-.53125.716659.000015 1.395825.083348 2.0625.25.683323.166681 1.308323.402098 1.875.71875l.96875-2.5625c-.483345-.283316-1.150011-.51665-2-.75-.833343-.249982-1.791675-.374982-2.875-.375zm14 4.3125c-1.000007.000013-1.887506.181263-2.6875.53125-.800004.350013-1.495837.820845-2.0625 1.4375-.550002.616677-.981252 1.36876-1.28125 2.21875-.300001.833342-.437501 1.720841-.4375 2.6875-.000001.983339.139582 1.900005.40625 2.75.266665.833336.654164 1.570836 1.1875 2.1875.549997.600001 1.245829 1.056251 2.0625 1.40625.833328.333333 1.789577.5 2.90625.5.716658 0 1.427074-.054167 2.09375-.1875.683323-.133333 1.197906-.302083 1.53125-.46875l-.4375-2.5c-.366677.150003-.81251.275003-1.3125.375-.500009.100002-.983342.156252-1.5.15625-1.38334.000002-2.385422-.374997-2.96875-1.125-.583338-.766662-.875004-1.793745-.875-3.09375-.000004-1.349992.320829-2.391658.9375-3.125.616661-.74999 1.50416-1.124989 2.6875-1.125.499992.000011.972908.056261 1.40625.15625.44999.100011.83749.22501 1.1875.375l.65625-2.46875c-1.10001-.449987-2.266676-.687487-3.5-.6875zm10.28125 0c-1.516671.000013-2.71042.362513-3.59375 1.0625-.883335.683345-1.343751 1.612511-1.34375 2.8125-.000001.616676.097915 1.129175.28125 1.5625.199998.416674.479165.793757.8125 1.09375.333331.300007.706247.547923 1.15625.78125.466663.216673.981246.425006 1.53125.625.899994.333338 1.55416.654171 1.9375.9375.399993.283338.593743.629171.59375 1.0625-.000008.46667-.195841.800003-.5625 1-.366673.183336-.950006.281252-1.75.28125-.800004.000002-1.52292-.083331-2.15625-.25-.616669-.166664-1.143752-.347914-1.59375-.53125l-.53125 2.53125c.283332.116667.799998.285417 1.5.46875.699997.2 1.599996.28125 2.75.28125 1.71666 0 3.052075-.304167 3.96875-.9375.933323-.649999 1.406239-1.593748 1.40625-2.84375-.000011-.583329-.10001-1.083329-.25-1.5-.15001-.416661-.385427-.808328-.71875-1.125-.316676-.333327-.718759-.624993-1.21875-.875-.500008-.266659-1.095841-.514576-1.8125-.78125-.433339-.149992-.825006-.304159-1.125-.4375-.300005-.149992-.535422-.272908-.71875-.40625-.183338-.149991-.322921-.333324-.40625-.5-.066671-.166657-.093754-.345824-.09375-.5625-.000004-.433323.210412-.73749.59375-.9375.383328-.216656.883328-.343739 1.5-.34375.683326.000011 1.264576.085428 1.78125.21875.516658.116677.947908.22501 1.28125.375l.5625-2.4375c-.35001-.13332-.893759-.272904-1.59375-.40625-.700008-.149987-1.42084-.218737-2.1875-.21875zm11.40625 0c-1.516671.000013-2.71042.362513-3.59375 1.0625-.883335.683345-1.312501 1.612511-1.3125 2.8125-.000001.616676.097915 1.129175.28125 1.5625.199998.416674.447915.793757.78125 1.09375.333331.300007.737497.547923 1.1875.78125.466663.216673.981246.425006 1.53125.625.899994.333338 1.52291.654171 1.90625.9375.399993.283338.593742.629171.59375 1.0625-.000008.46667-.164591.800003-.53125 1-.366673.183336-.950006.281252-1.75.28125-.800004.000002-1.52292-.083331-2.15625-.25-.616669-.166664-1.143752-.347914-1.59375-.53125l-.53125 2.53125c.283332.116667.768748.285417 1.46875.46875.699997.2 1.631246.28125 2.78125.28125 1.71666 0 3.020825-.304167 3.9375-.9375.933323-.649999 1.406239-1.593748 1.40625-2.84375-.000011-.583329-.06876-1.083329-.21875-1.5-.15001-.416661-.385427-.808328-.71875-1.125-.316676-.333327-.718759-.624993-1.21875-.875-.500008-.266659-1.127091-.514576-1.84375-.78125-.433339-.149992-.793756-.304159-1.09375-.4375-.300005-.149992-.535422-.272908-.71875-.40625-.183338-.149991-.322921-.333324-.40625-.5-.066671-.166657-.093754-.345824-.09375-.5625-.000004-.433323.179162-.73749.5625-.9375.383328-.216656.883328-.343739 1.5-.34375.683326.000011 1.295826.085428 1.8125.21875.516658.116677.947908.22501 1.28125.375l.53125-2.4375c-.35001-.13332-.862509-.272904-1.5625-.40625-.700008-.149987-1.45209-.218737-2.21875-.21875z" transform="translate(-147.143 939.148)"/></g></g></g></svg>