<svg width="835" height="200" viewBox="0 0 835 200" fill="none" xmlns="http://www.w3.org/2000/svg">
<path d="M322.136 169.4H316.546L309.266 140.254H310.124L302.818 169.4H297.228L290 135.08H295.07L300.296 163.602H300.218L307.654 135.08H311.71L319.146 163.602H319.068L324.32 135.08H329.364L322.136 169.4Z" fill="white"/>
<path d="M335.63 159.65C335.647 160.933 335.925 162.103 336.462 163.16C336.999 164.217 337.797 165.058 338.854 165.682C339.929 166.306 341.246 166.618 342.806 166.618C344.123 166.618 345.241 166.427 346.16 166.046C347.096 165.647 347.859 165.179 348.448 164.642C349.037 164.087 349.462 163.593 349.722 163.16L351.932 165.89C351.36 166.722 350.658 167.45 349.826 168.074C349.011 168.698 348.015 169.175 346.836 169.504C345.657 169.851 344.219 170.024 342.52 170.024C340.232 170.024 338.247 169.539 336.566 168.568C334.902 167.58 333.619 166.219 332.718 164.486C331.817 162.735 331.366 160.733 331.366 158.48C331.366 156.4 331.791 154.528 332.64 152.864C333.489 151.183 334.72 149.857 336.332 148.886C337.961 147.915 339.92 147.43 342.208 147.43C344.305 147.43 346.125 147.872 347.668 148.756C349.228 149.623 350.433 150.853 351.282 152.448C352.149 154.043 352.582 155.949 352.582 158.168C352.582 158.307 352.573 158.558 352.556 158.922C352.539 159.269 352.521 159.511 352.504 159.65H335.63ZM348.266 156.244C348.249 155.533 348.041 154.753 347.642 153.904C347.261 153.055 346.637 152.327 345.77 151.72C344.903 151.113 343.733 150.81 342.26 150.81C340.735 150.81 339.504 151.105 338.568 151.694C337.649 152.283 336.973 153.003 336.54 153.852C336.107 154.684 335.855 155.481 335.786 156.244H348.266Z" fill="white"/>
<path d="M357.213 169.4V133.624H361.789V152.058C361.893 151.521 362.301 150.888 363.011 150.16C363.722 149.432 364.675 148.799 365.871 148.262C367.067 147.707 368.445 147.43 370.005 147.43C371.999 147.43 373.767 147.907 375.309 148.86C376.852 149.796 378.065 151.113 378.949 152.812C379.851 154.493 380.301 156.469 380.301 158.74C380.301 161.011 379.851 162.995 378.949 164.694C378.065 166.375 376.852 167.684 375.309 168.62C373.767 169.556 371.999 170.024 370.005 170.024C368.532 170.024 367.197 169.747 366.001 169.192C364.823 168.637 363.861 167.987 363.115 167.242C362.37 166.497 361.902 165.829 361.711 165.24V169.4H357.213ZM375.803 158.74C375.803 157.197 375.491 155.863 374.867 154.736C374.243 153.609 373.411 152.734 372.371 152.11C371.349 151.486 370.222 151.174 368.991 151.174C367.657 151.174 366.443 151.495 365.351 152.136C364.259 152.76 363.393 153.644 362.751 154.788C362.11 155.915 361.789 157.232 361.789 158.74C361.789 160.248 362.11 161.574 362.751 162.718C363.393 163.845 364.259 164.72 365.351 165.344C366.443 165.968 367.657 166.28 368.991 166.28C370.222 166.28 371.349 165.977 372.371 165.37C373.411 164.746 374.243 163.871 374.867 162.744C375.491 161.617 375.803 160.283 375.803 158.74Z" fill="white"/>
<path d="M393.739 170.024C391.78 170.024 390.021 169.556 388.461 168.62C386.918 167.684 385.696 166.375 384.795 164.694C383.911 162.995 383.469 161.011 383.469 158.74C383.469 156.469 383.911 154.493 384.795 152.812C385.696 151.113 386.918 149.796 388.461 148.86C390.021 147.907 391.78 147.43 393.739 147.43C395.316 147.43 396.703 147.707 397.899 148.262C399.095 148.799 400.048 149.432 400.759 150.16C401.469 150.888 401.877 151.521 401.981 152.058V133.624H406.531V169.4H402.059V165.24C401.868 165.829 401.391 166.497 400.629 167.242C399.883 167.987 398.921 168.637 397.743 169.192C396.564 169.747 395.229 170.024 393.739 170.024ZM394.779 166.28C396.096 166.28 397.301 165.968 398.393 165.344C399.485 164.72 400.351 163.845 400.993 162.718C401.651 161.574 401.981 160.248 401.981 158.74C401.981 157.232 401.651 155.915 400.993 154.788C400.351 153.644 399.485 152.76 398.393 152.136C397.301 151.495 396.096 151.174 394.779 151.174C393.565 151.174 392.439 151.486 391.399 152.11C390.359 152.734 389.518 153.609 388.877 154.736C388.253 155.863 387.941 157.197 387.941 158.74C387.941 160.283 388.253 161.617 388.877 162.744C389.518 163.871 390.359 164.746 391.399 165.37C392.439 165.977 393.565 166.28 394.779 166.28Z" fill="white"/>
<path d="M414.17 159.65C414.188 160.933 414.465 162.103 415.002 163.16C415.54 164.217 416.337 165.058 417.394 165.682C418.469 166.306 419.786 166.618 421.346 166.618C422.664 166.618 423.782 166.427 424.7 166.046C425.636 165.647 426.399 165.179 426.988 164.642C427.578 164.087 428.002 163.593 428.262 163.16L430.472 165.89C429.9 166.722 429.198 167.45 428.366 168.074C427.552 168.698 426.555 169.175 425.376 169.504C424.198 169.851 422.759 170.024 421.06 170.024C418.772 170.024 416.788 169.539 415.106 168.568C413.442 167.58 412.16 166.219 411.258 164.486C410.357 162.735 409.906 160.733 409.906 158.48C409.906 156.4 410.331 154.528 411.18 152.864C412.03 151.183 413.26 149.857 414.872 148.886C416.502 147.915 418.46 147.43 420.748 147.43C422.846 147.43 424.666 147.872 426.208 148.756C427.768 149.623 428.973 150.853 429.822 152.448C430.689 154.043 431.122 155.949 431.122 158.168C431.122 158.307 431.114 158.558 431.096 158.922C431.079 159.269 431.062 159.511 431.044 159.65H414.17ZM426.806 156.244C426.789 155.533 426.581 154.753 426.182 153.904C425.801 153.055 425.177 152.327 424.31 151.72C423.444 151.113 422.274 150.81 420.8 150.81C419.275 150.81 418.044 151.105 417.108 151.694C416.19 152.283 415.514 153.003 415.08 153.852C414.647 154.684 414.396 155.481 414.326 156.244H426.806Z" fill="white"/>
<path d="M443.866 147.43C444.975 147.43 446.006 147.543 446.96 147.768C447.93 147.993 448.762 148.262 449.456 148.574C450.166 148.886 450.669 149.163 450.964 149.406L449.17 152.266C448.823 151.954 448.199 151.607 447.298 151.226C446.396 150.827 445.391 150.628 444.282 150.628C443.068 150.628 442.037 150.871 441.188 151.356C440.338 151.824 439.914 152.509 439.914 153.41C439.914 154.311 440.347 155.031 441.214 155.568C442.098 156.088 443.276 156.521 444.75 156.868C445.928 157.145 447.029 157.518 448.052 157.986C449.092 158.454 449.932 159.104 450.574 159.936C451.215 160.751 451.536 161.843 451.536 163.212C451.536 164.46 451.276 165.526 450.756 166.41C450.236 167.277 449.534 167.979 448.65 168.516C447.766 169.036 446.778 169.417 445.686 169.66C444.594 169.903 443.484 170.024 442.358 170.024C441.04 170.024 439.853 169.885 438.796 169.608C437.738 169.348 436.846 169.036 436.118 168.672C435.407 168.291 434.887 167.961 434.558 167.684L436.352 164.46C436.802 164.893 437.539 165.353 438.562 165.838C439.602 166.323 440.78 166.566 442.098 166.566C443.554 166.566 444.732 166.263 445.634 165.656C446.535 165.032 446.986 164.226 446.986 163.238C446.986 162.493 446.769 161.895 446.336 161.444C445.902 160.993 445.322 160.629 444.594 160.352C443.866 160.075 443.068 159.832 442.202 159.624C441.37 159.433 440.555 159.182 439.758 158.87C438.978 158.558 438.258 158.159 437.6 157.674C436.958 157.171 436.447 156.565 436.066 155.854C435.684 155.126 435.494 154.277 435.494 153.306C435.494 152.075 435.884 151.027 436.664 150.16C437.444 149.276 438.466 148.6 439.732 148.132C440.997 147.664 442.375 147.43 443.866 147.43Z" fill="white"/>
<path d="M457.013 169.4V148.054H461.537V169.4H457.013ZM459.327 140.748C458.513 140.748 457.811 140.462 457.221 139.89C456.649 139.301 456.363 138.599 456.363 137.784C456.363 136.969 456.649 136.267 457.221 135.678C457.811 135.089 458.513 134.794 459.327 134.794C459.865 134.794 460.359 134.933 460.809 135.21C461.277 135.487 461.65 135.851 461.927 136.302C462.205 136.735 462.343 137.229 462.343 137.784C462.343 138.599 462.049 139.301 461.459 139.89C460.87 140.462 460.159 140.748 459.327 140.748Z" fill="white"/>
<path d="M478.385 180.814C476.704 180.814 475.178 180.641 473.809 180.294C472.457 179.947 471.27 179.453 470.247 178.812C469.242 178.188 468.436 177.451 467.829 176.602L470.793 173.768C471.122 174.219 471.564 174.695 472.119 175.198C472.691 175.718 473.462 176.16 474.433 176.524C475.404 176.888 476.669 177.07 478.229 177.07C479.754 177.07 481.046 176.741 482.103 176.082C483.16 175.441 483.966 174.565 484.521 173.456C485.076 172.347 485.353 171.099 485.353 169.712V169.01H489.773V169.998C489.773 172.355 489.262 174.331 488.239 175.926C487.234 177.538 485.873 178.751 484.157 179.566C482.441 180.398 480.517 180.814 478.385 180.814ZM485.353 169.4V165.24C485.214 165.673 484.807 166.271 484.131 167.034C483.472 167.797 482.562 168.49 481.401 169.114C480.257 169.721 478.905 170.024 477.345 170.024C475.369 170.024 473.575 169.556 471.963 168.62C470.368 167.684 469.094 166.375 468.141 164.694C467.205 162.995 466.737 161.011 466.737 158.74C466.737 156.469 467.205 154.493 468.141 152.812C469.094 151.113 470.368 149.796 471.963 148.86C473.575 147.907 475.369 147.43 477.345 147.43C478.888 147.43 480.222 147.707 481.349 148.262C482.493 148.817 483.403 149.458 484.079 150.186C484.772 150.914 485.18 151.538 485.301 152.058V148.054H489.773V169.4H485.353ZM471.209 158.74C471.209 160.283 471.547 161.617 472.223 162.744C472.899 163.871 473.774 164.746 474.849 165.37C475.941 165.977 477.102 166.28 478.333 166.28C479.65 166.28 480.829 165.968 481.869 165.344C482.909 164.72 483.732 163.845 484.339 162.718C484.946 161.574 485.249 160.248 485.249 158.74C485.249 157.232 484.946 155.915 484.339 154.788C483.732 153.644 482.909 152.76 481.869 152.136C480.829 151.495 479.65 151.174 478.333 151.174C477.102 151.174 475.941 151.486 474.849 152.11C473.774 152.734 472.899 153.609 472.223 154.736C471.547 155.863 471.209 157.197 471.209 158.74Z" fill="white"/>
<path d="M507.695 147.43C509.099 147.43 510.46 147.725 511.777 148.314C513.112 148.903 514.204 149.839 515.053 151.122C515.92 152.387 516.353 154.043 516.353 156.088V169.4H511.777V156.972C511.777 154.857 511.283 153.323 510.295 152.37C509.307 151.399 508.033 150.914 506.473 150.914C505.45 150.914 504.462 151.209 503.509 151.798C502.573 152.37 501.802 153.167 501.195 154.19C500.588 155.195 500.285 156.339 500.285 157.622V169.4H495.761V148.054H500.285V151.85C500.441 151.261 500.866 150.619 501.559 149.926C502.252 149.233 503.136 148.643 504.211 148.158C505.286 147.673 506.447 147.43 507.695 147.43Z" fill="white"/>
<path d="M560.308 147.43C561.885 147.43 563.237 147.777 564.364 148.47C565.491 149.146 566.349 150.186 566.938 151.59C567.545 152.994 567.848 154.788 567.848 156.972V169.4H563.376V157.882C563.376 155.577 563.055 153.843 562.414 152.682C561.773 151.521 560.603 150.94 558.904 150.94C558.003 150.94 557.136 151.191 556.304 151.694C555.489 152.179 554.813 152.933 554.276 153.956C553.756 154.979 553.496 156.287 553.496 157.882V169.4H549.284V157.882C549.284 155.577 548.885 153.843 548.088 152.682C547.291 151.521 546.173 150.94 544.734 150.94C543.815 150.94 542.949 151.183 542.134 151.668C541.337 152.136 540.687 152.881 540.184 153.904C539.681 154.927 539.43 156.253 539.43 157.882V169.4H534.932V148.054H539.43V151.33C539.621 150.793 540.028 150.221 540.652 149.614C541.293 149.007 542.108 148.496 543.096 148.08C544.101 147.647 545.219 147.43 546.45 147.43C547.733 147.43 548.807 147.69 549.674 148.21C550.541 148.73 551.225 149.371 551.728 150.134C552.231 150.879 552.577 151.599 552.768 152.292C553.011 151.547 553.479 150.801 554.172 150.056C554.865 149.293 555.741 148.669 556.798 148.184C557.855 147.681 559.025 147.43 560.308 147.43Z" fill="white"/>
<path d="M574.338 169.4V148.054H578.862V169.4H574.338ZM576.652 140.748C575.838 140.748 575.136 140.462 574.546 139.89C573.974 139.301 573.688 138.599 573.688 137.784C573.688 136.969 573.974 136.267 574.546 135.678C575.136 135.089 575.838 134.794 576.652 134.794C577.19 134.794 577.684 134.933 578.134 135.21C578.602 135.487 578.975 135.851 579.252 136.302C579.53 136.735 579.668 137.229 579.668 137.784C579.668 138.599 579.374 139.301 578.784 139.89C578.195 140.462 577.484 140.748 576.652 140.748Z" fill="white"/>
<path d="M583.698 148.054H587.884V139.292H592.382V148.054H597.868V151.928H592.382V162.484C592.382 163.732 592.599 164.651 593.032 165.24C593.483 165.829 594.081 166.124 594.826 166.124C595.485 166.124 595.996 166.003 596.36 165.76C596.724 165.517 596.941 165.353 597.01 165.266L598.804 168.594C598.7 168.681 598.423 168.845 597.972 169.088C597.521 169.331 596.941 169.547 596.23 169.738C595.519 169.929 594.687 170.024 593.734 170.024C592.07 170.024 590.675 169.521 589.548 168.516C588.439 167.493 587.884 165.881 587.884 163.68V151.928H583.698V148.054Z" fill="white"/>
<path d="M615.864 135.08H640.694L621.402 165.37H639.576V169.4H613.446L632.816 139.11H615.864V135.08Z" fill="white"/>
<path d="M649.761 158.818C649.761 161.054 650.238 162.839 651.191 164.174C652.162 165.491 653.644 166.15 655.637 166.15C657.648 166.15 659.13 165.491 660.083 164.174C661.036 162.839 661.513 161.054 661.513 158.818V148.054H665.985V159.442C665.985 161.522 665.578 163.359 664.763 164.954C663.966 166.549 662.796 167.797 661.253 168.698C659.728 169.582 657.856 170.024 655.637 170.024C653.436 170.024 651.564 169.582 650.021 168.698C648.496 167.797 647.326 166.549 646.511 164.954C645.714 163.359 645.315 161.522 645.315 159.442V148.054H649.761V158.818Z" fill="white"/>
<path d="M684.925 148.054H690.385L679.361 158.22L691.113 169.4H685.575L675.669 159.936V169.4H671.145V133.624H675.669V156.504L684.925 148.054Z" fill="white"/>
<path d="M698.245 158.818C698.245 161.054 698.722 162.839 699.675 164.174C700.646 165.491 702.128 166.15 704.121 166.15C706.132 166.15 707.614 165.491 708.567 164.174C709.52 162.839 709.997 161.054 709.997 158.818V148.054H714.469V159.442C714.469 161.522 714.062 163.359 713.247 164.954C712.45 166.549 711.28 167.797 709.737 168.698C708.212 169.582 706.34 170.024 704.121 170.024C701.92 170.024 700.048 169.582 698.505 168.698C696.98 167.797 695.81 166.549 694.995 164.954C694.198 163.359 693.799 161.522 693.799 159.442V148.054H698.245V158.818Z" fill="white"/>
<path d="M732.29 147.43C733.694 147.43 735.055 147.725 736.372 148.314C737.707 148.903 738.799 149.839 739.648 151.122C740.515 152.387 740.948 154.043 740.948 156.088V169.4H736.372V156.972C736.372 154.857 735.878 153.323 734.89 152.37C733.902 151.399 732.628 150.914 731.068 150.914C730.046 150.914 729.058 151.209 728.104 151.798C727.168 152.37 726.397 153.167 725.79 154.19C725.184 155.195 724.88 156.339 724.88 157.622V169.4H720.356V148.054H724.88V151.85C725.036 151.261 725.461 150.619 726.154 149.926C726.848 149.233 727.732 148.643 728.806 148.158C729.881 147.673 731.042 147.43 732.29 147.43Z" fill="white"/>
<path d="M744.602 148.054H748.97V141.996C748.97 139.829 749.343 138.087 750.088 136.77C750.851 135.453 751.813 134.499 752.974 133.91C754.153 133.303 755.358 133 756.588 133C758.079 133 759.223 133.208 760.02 133.624C760.835 134.04 761.32 134.317 761.476 134.456L759.656 137.914C759.57 137.81 759.301 137.619 758.85 137.342C758.4 137.065 757.784 136.926 757.004 136.926C756.432 136.926 755.878 137.065 755.34 137.342C754.803 137.619 754.352 138.157 753.988 138.954C753.624 139.751 753.442 140.939 753.442 142.516V148.054H759.526V151.928H753.442V169.4H748.97V151.928H744.602V148.054Z" fill="white"/>
<path d="M761.536 148.054H765.722V139.292H770.22V148.054H775.706V151.928H770.22V162.484C770.22 163.732 770.437 164.651 770.87 165.24C771.321 165.829 771.919 166.124 772.664 166.124C773.323 166.124 773.834 166.003 774.198 165.76C774.562 165.517 774.779 165.353 774.848 165.266L776.642 168.594C776.538 168.681 776.261 168.845 775.81 169.088C775.359 169.331 774.779 169.547 774.068 169.738C773.357 169.929 772.525 170.024 771.572 170.024C769.908 170.024 768.513 169.521 767.386 168.516C766.277 167.493 765.722 165.881 765.722 163.68V151.928H761.536V148.054Z" fill="white"/>
<path d="M291.414 97.7954L305.614 43.9376C309.461 29.2663 321.983 21.9117 343.179 21.874H373.672C375.067 21.874 376.218 22.402 377.123 23.4581C378.066 24.5141 378.537 25.7399 378.537 27.1353V97.7954C378.537 99.2663 378.009 100.511 376.953 101.529C375.897 102.51 374.634 103 373.163 103H362.527C360.98 103 359.698 102.51 358.68 101.529C357.699 100.511 357.209 99.2285 357.209 97.6822V83.4257H316.985L313.195 97.6822C312.818 99.2285 311.969 100.511 310.649 101.529C309.329 102.51 307.934 103 306.463 103H295.318C293.847 103 292.791 102.585 292.15 101.755C291.509 100.888 291.188 100.134 291.188 99.4926C291.226 98.8514 291.301 98.2857 291.414 97.7954ZM321.172 67.4155H357.209V37.8843H341.086C337.465 37.8843 334.297 38.9214 331.581 40.9958C328.903 43.0324 327.093 45.7857 326.15 49.2555L321.172 67.4155Z" fill="white"/>
<path d="M394.717 97.7954V27.3616C394.717 25.8153 395.245 24.5141 396.301 23.4581C397.357 22.402 398.621 21.874 400.091 21.874H431.716C448.084 21.874 459.984 25.1553 467.414 31.7178C474.881 38.2426 478.615 48.5012 478.615 62.4936C478.615 76.4484 474.881 86.6881 467.414 93.2129C459.984 99.7377 448.084 103 431.716 103H400.091C398.621 103 397.357 102.51 396.301 101.529C395.245 100.511 394.717 99.2663 394.717 97.7954ZM416.045 86.9899H431.094C441.239 86.9899 448.141 85.1418 451.799 81.4457C455.458 77.7496 457.287 71.4322 457.287 62.4936C457.287 53.5173 455.458 47.1811 451.799 43.485C448.141 39.7512 441.239 37.8843 431.094 37.8843H416.045V86.9899Z" fill="white"/>
<path d="M490.213 97.5691V27.1353C490.213 25.6644 490.741 24.4198 491.797 23.4015C492.853 22.3832 494.116 21.874 495.587 21.874H560.816C562.287 21.874 563.532 22.402 564.55 23.4581C565.606 24.5141 566.134 25.7776 566.134 27.2485V32.5664C566.134 34.0373 565.606 35.3007 564.55 36.3568C563.532 37.3751 562.287 37.8843 560.816 37.8843H511.541V54.3471H553.971C555.442 54.3471 556.686 54.8751 557.705 55.9311C558.761 56.9495 559.289 58.1941 559.289 59.665V64.9829C559.289 66.4538 558.761 67.7172 557.705 68.7733C556.686 69.7916 555.442 70.3007 553.971 70.3007H511.541V86.9899H560.703C562.136 86.9899 563.362 87.499 564.38 88.5173C565.399 89.5357 565.908 90.7803 565.908 92.2512V97.6822C565.908 99.1531 565.38 100.417 564.324 101.473C563.268 102.491 562.004 103 560.533 103H495.587C494.116 103 492.853 102.491 491.797 101.473C490.741 100.417 490.213 99.1154 490.213 97.5691Z" fill="white"/>
<path d="M576.544 97.6822V27.2485C576.544 25.7776 577.053 24.5141 578.071 23.4581C579.089 22.402 580.334 21.874 581.805 21.874H598.437C599.757 21.874 601.153 22.402 602.624 23.4581C604.095 24.5141 605.302 25.7776 606.245 27.2485L640.415 79.8051V27.1353C640.415 25.6644 640.924 24.4198 641.942 23.4015C642.998 22.3832 644.262 21.874 645.733 21.874H655.463C656.934 21.874 658.179 22.3832 659.197 23.4015C660.253 24.4198 660.781 25.7021 660.781 27.2485V97.6822C660.781 99.1531 660.253 100.417 659.197 101.473C658.179 102.491 656.934 103 655.463 103H636.681C635.21 103 633.701 102.491 632.155 101.473C630.609 100.417 629.383 99.1531 628.478 97.6822L597.193 49.1423V97.6822C597.193 99.1531 596.665 100.417 595.609 101.473C594.59 102.491 593.346 103 591.875 103H581.918C580.447 103 579.184 102.491 578.128 101.473C577.072 100.417 576.544 99.1531 576.544 97.6822Z" fill="white"/>
<path d="M716.506 70.9231V27.2485C716.506 25.7776 717.015 24.5141 718.033 23.4581C719.089 22.402 720.391 21.874 721.937 21.874H732.516C733.949 21.874 735.194 22.402 736.25 23.4581C737.306 24.5141 737.834 25.7776 737.834 27.2485V71.0362C737.834 76.5804 739.041 80.7102 741.455 83.4257C743.906 86.1413 747.678 87.499 752.769 87.499H761.821C766.913 87.499 770.665 86.1413 773.079 83.4257C775.531 80.7102 776.756 76.5804 776.756 71.0362V27.2485C776.756 25.7776 777.266 24.5141 778.284 23.4581C779.34 22.402 780.603 21.874 782.074 21.874H792.597C794.143 21.874 795.444 22.402 796.5 23.4581C797.556 24.5141 798.085 25.7776 798.085 27.2485V70.9231C798.085 81.2571 795.048 89.2717 788.976 94.9667C782.904 100.624 774.041 103.453 762.387 103.453H752.204C740.512 103.453 731.63 100.624 725.558 94.9667C719.523 89.2717 716.506 81.2571 716.506 70.9231Z" fill="white"/>
<path d="M813.133 97.7954V27.2485C813.133 25.7776 813.661 24.5141 814.717 23.4581C815.773 22.402 817.037 21.874 818.507 21.874H829.03C830.576 21.874 831.859 22.402 832.877 23.4581C833.933 24.5141 834.461 25.7776 834.461 27.2485V97.6822C834.461 99.1531 833.914 100.417 832.82 101.473C831.764 102.491 830.501 103 829.03 103H818.507C817.037 103 815.773 102.51 814.717 101.529C813.661 100.511 813.133 99.2663 813.133 97.7954Z" fill="white"/>
<path d="M210.633 169.376L224.86 200L191.38 199.98C184.668 199.782 179.414 198.13 175.613 195.022C171.74 191.702 168.237 186.354 165.101 178.978L156.163 157.954H192.881C200.769 157.954 207.562 162.638 210.633 169.376Z" fill="url(#paint0_linear_2268_595)"/>
<path d="M192.882 157.954H81.7364L92.9867 131.521C95.8098 124.229 103.049 118.95 111.338 118.95L174.765 118.956C182.667 118.956 189.47 123.656 192.533 130.413L210.633 169.376C207.563 162.638 200.77 157.954 192.882 157.954Z" fill="url(#paint1_linear_2268_595)"/>
<path fill-rule="evenodd" clip-rule="evenodd" d="M111.764 55.6018L123.88 27.2503C125.95 23.8368 129.659 21.6235 133.943 21.6235C138.518 21.6235 142.421 23.99 144.382 27.7946L141.087 20.7472C137.583 13.5548 133.433 8.29863 128.639 4.97913C124.028 1.65988 118.588 0 112.317 0C106.048 0 100.423 1.65988 95.4433 4.97913C90.6488 8.29863 86.5916 13.5548 83.2716 20.7472L0 200C11.1598 200 22.3196 200 33.4793 200C40.6712 200 46.0199 198.34 49.5237 195.022C53.0278 191.702 56.4393 186.354 59.7585 178.978L68.6978 157.953L111.764 55.6018Z" fill="url(#paint2_linear_2268_595)"/>
<path d="M146.839 106.413H181.136L144.38 27.7906C142.419 23.9883 138.517 21.6235 133.943 21.6235C129.659 21.6235 125.95 23.8368 123.88 27.2503L111.764 55.6019L127.917 93.544C130.894 101.081 138.244 106.413 146.839 106.413Z" fill="url(#paint3_linear_2268_595)"/>
<defs>
<linearGradient id="paint0_linear_2268_595" x1="182.646" y1="157.592" x2="199.213" y2="201.233" gradientUnits="userSpaceOnUse">
<stop stop-color="#275347"/>
<stop offset="1" stop-color="#377664"/>
</linearGradient>
<linearGradient id="paint1_linear_2268_595" x1="210.932" y1="143.853" x2="81.6251" y2="143.853" gradientUnits="userSpaceOnUse">
<stop stop-color="#377664"/>
<stop offset="1" stop-color="#50AA90"/>
</linearGradient>
<linearGradient id="paint2_linear_2268_595" x1="117.992" y1="1.83224e-06" x2="25.4572" y2="199.617" gradientUnits="userSpaceOnUse">
<stop stop-color="#377664"/>
<stop offset="1" stop-color="#50AA90"/>
</linearGradient>
<linearGradient id="paint3_linear_2268_595" x1="123.649" y1="21.8204" x2="155.168" y2="106.678" gradientUnits="userSpaceOnUse">
<stop stop-color="#275347"/>
<stop offset="1" stop-color="#377664"/>
</linearGradient>
</defs>
</svg>
